<?xml version="1.0" encoding="UTF-8" standalone="no"?>
<!-- Created with Inkscape (http://www.inkscape.org/) -->

<svg
   xmlns:dc="http://purl.org/dc/elements/1.1/"
   xmlns:cc="http://creativecommons.org/ns#"
   xmlns:rdf="http://www.w3.org/1999/02/22-rdf-syntax-ns#"
   xmlns:svg="http://www.w3.org/2000/svg"
   xmlns="http://www.w3.org/2000/svg"
   xmlns:sodipodi="http://sodipodi.sourceforge.net/DTD/sodipodi-0.dtd"
   xmlns:inkscape="http://www.inkscape.org/namespaces/inkscape"
   width="48px"
   height="48px"
   id="svg2985"
   version="1.1"
   inkscape:version="0.91 r13725"
   sodipodi:docname="home_server.svg">
  <defs
     id="defs2987" />
  <sodipodi:namedview
     id="base"
     pagecolor="#ffffff"
     bordercolor="#666666"
     borderopacity="1.0"
     inkscape:pageopacity="0.0"
     inkscape:pageshadow="2"
     inkscape:zoom="9.8994949"
     inkscape:cx="13.895558"
     inkscape:cy="16.864255"
     inkscape:current-layer="layer1"
     showgrid="true"
     inkscape:grid-bbox="true"
     inkscape:document-units="px"
     inkscape:window-width="1860"
     inkscape:window-height="1064"
     inkscape:window-x="60"
     inkscape:window-y="0"
     inkscape:window-maximized="1" />
  <metadata
     id="metadata2990">
    <rdf:RDF>
      <cc:Work
         rdf:about="">
        <dc:format>image/svg+xml</dc:format>
        <dc:type
           rdf:resource="http://purl.org/dc/dcmitype/StillImage" />
        <dc:title />
      </cc:Work>
    </rdf:RDF>
  </metadata>
  <g
     id="layer1"
     inkscape:label="Layer 1"
     inkscape:groupmode="layer">
    <path
       style="color:#000000;display:inline;overflow:visible;visibility:visible;fill:#262626;fill-opacity:1;fill-rule:evenodd;stroke:#262626;stroke-width:0.91998446;stroke-linecap:butt;stroke-linejoin:round;stroke-miterlimit:4;stroke-dasharray:none;stroke-dashoffset:0;stroke-opacity:1;marker:none;enable-background:accumulate"
       d="M 11.96333,2.3533036 2.5771517,15.874978 45.419017,16.060842 36.404568,2.3997699 Z"
       id="path2995"
       inkscape:connector-curvature="0"
       sodipodi:nodetypes="ccccc" />
    <path
       style="color:#000000;display:inline;overflow:visible;visibility:visible;fill:#262626;fill-opacity:1;fill-rule:evenodd;stroke:#262626;stroke-width:0.9813202;stroke-linecap:butt;stroke-linejoin:round;stroke-miterlimit:4;stroke-dasharray:none;stroke-dashoffset:0;stroke-opacity:1;marker:none;enable-background:accumulate"
       d="m 2.5016147,18.239887 0,7.07238 43.1530203,0 0,-7.07238 -43.1530203,0 z m 2.3287107,1.926217 3.1049475,0 0,3.104948 -3.1049475,0 0,-3.104948 z m 5.4049086,0 3.104948,0 0,3.104948 -3.104948,0 0,-3.104948 z m 5.002415,0 3.104948,0 0,3.104948 -3.104948,0 0,-3.104948 z m 20.75715,0 3.104947,0 0,3.104948 -3.104947,0 0,-3.104948 z m 4.657421,0 3.104947,0 0,3.104948 -3.104947,0 0,-3.104948 z"
       id="rect3765"
       inkscape:connector-curvature="0" />
    <path
       id="path3817"
       d="m 2.5016147,28.183661 0,7.072381 43.1530203,0 0,-7.072381 -43.1530203,0 z m 2.3287107,1.926217 3.1049475,0 0,3.104948 -3.1049475,0 0,-3.104948 z m 5.4049086,0 3.104948,0 0,3.104948 -3.104948,0 0,-3.104948 z m 5.002415,0 3.104948,0 0,3.104948 -3.104948,0 0,-3.104948 z m 20.75715,0 3.104947,0 0,3.104948 -3.104947,0 0,-3.104948 z m 4.657421,0 3.104947,0 0,3.104948 -3.104947,0 0,-3.104948 z"
       style="color:#000000;display:inline;overflow:visible;visibility:visible;fill:#262626;fill-opacity:1;fill-rule:evenodd;stroke:#262626;stroke-width:0.9813202;stroke-linecap:butt;stroke-linejoin:round;stroke-miterlimit:4;stroke-dasharray:none;stroke-dashoffset:0;stroke-opacity:1;marker:none;enable-background:accumulate"
       inkscape:connector-curvature="0" />
    <path
       inkscape:connector-curvature="0"
       style="color:#000000;display:inline;overflow:visible;visibility:visible;fill:#262626;fill-opacity:1;fill-rule:evenodd;stroke:#262626;stroke-width:0.9813202;stroke-linecap:butt;stroke-linejoin:round;stroke-miterlimit:4;stroke-dasharray:none;stroke-dashoffset:0;stroke-opacity:1;marker:none;enable-background:accumulate"
       d="m 2.5016147,37.569839 0,7.072381 43.1530203,0 0,-7.072381 -43.1530203,0 z m 2.3287107,1.926218 3.1049475,0 0,3.104947 -3.1049475,0 0,-3.104947 z m 5.4049086,0 3.104948,0 0,3.104947 -3.104948,0 0,-3.104947 z m 5.002415,0 3.104948,0 0,3.104947 -3.104948,0 0,-3.104947 z m 20.75715,0 3.104947,0 0,3.104947 -3.104947,0 0,-3.104947 z m 4.657421,0 3.104947,0 0,3.104947 -3.104947,0 0,-3.104947 z"
       id="path3819" />
  </g>
</svg>
