<?xml version="1.0" encoding="UTF-8" standalone="no"?>
<!-- Created with Inkscape (http://www.inkscape.org/) -->

<svg
   xmlns:dc="http://purl.org/dc/elements/1.1/"
   xmlns:cc="http://creativecommons.org/ns#"
   xmlns:rdf="http://www.w3.org/1999/02/22-rdf-syntax-ns#"
   xmlns:svg="http://www.w3.org/2000/svg"
   xmlns="http://www.w3.org/2000/svg"
   xmlns:sodipodi="http://sodipodi.sourceforge.net/DTD/sodipodi-0.dtd"
   xmlns:inkscape="http://www.inkscape.org/namespaces/inkscape"
   width="60mm"
   height="60mm"
   viewBox="0 0 212.59843 212.59842"
   id="svg2"
   version="1.1"
   inkscape:version="0.91 r13725"
   sodipodi:docname="menu_info.svg">
  <defs
     id="defs4" />
  <sodipodi:namedview
     id="base"
     pagecolor="#ffffff"
     bordercolor="#666666"
     borderopacity="1.0"
     inkscape:pageopacity="0.0"
     inkscape:pageshadow="2"
     inkscape:zoom="2.8"
     inkscape:cx="13.624507"
     inkscape:cy="105.55449"
     inkscape:document-units="px"
     inkscape:current-layer="layer1"
     showgrid="false"
     inkscape:window-width="1858"
     inkscape:window-height="1061"
     inkscape:window-x="58"
     inkscape:window-y="1076"
     inkscape:window-maximized="1"
     inkscape:snap-global="false"
     inkscape:object-paths="true"
     inkscape:object-nodes="false" />
  <metadata
     id="metadata7">
    <rdf:RDF>
      <cc:Work
         rdf:about="">
        <dc:format>image/svg+xml</dc:format>
        <dc:type
           rdf:resource="http://purl.org/dc/dcmitype/StillImage" />
        <dc:title></dc:title>
      </cc:Work>
    </rdf:RDF>
  </metadata>
  <g
     inkscape:label="Layer 1"
     inkscape:groupmode="layer"
     id="layer1"
     transform="translate(0,-839.76378)">
    <path
       style="fill:#008cd1;fill-opacity:1;fill-rule:evenodd;stroke:none;stroke-width:0.79656219px;stroke-linecap:butt;stroke-linejoin:miter;stroke-opacity:1"
       d="m 64.718268,1017.6952 c -8.836861,0.638 -11.489682,-0.9448 -11.318465,6.8013 l -0.106309,17.5241 c -0.05672,3.8814 0.618365,4.7146 4.424068,4.7146 l 105.869358,4e-4 c 4.45292,0.016 4.77785,0.1302 4.6978,-3.9434 l 0.42523,-18.455 c 0.27203,-7.5613 -4.46505,-6.2633 -13.33712,-6.641 -20.25524,-0.9253 -27.52588,2.8841 -27.28636,-13.7167 l 0,-95.1653 c 0.19822,-3.32804 -0.50996,-3.44266 -3.38108,-3.35797 l -28.920616,0.28038 c -4.205593,-0.0483 -5.135388,0.60871 -7.40671,1.5733 -10.633191,4.50665 -18.209091,6.30908 -29.231138,8.48259 -2.236277,0.29607 -3.221261,1.97385 -3.204106,3.5928 l 0.0053,12.58183 c -0.101474,2.22828 0.728101,3.11216 2.592007,3.11216 l 19.90959,0.0751 c 13.614865,0.89168 14.355187,-0.16161 14.451536,7.39278 l 0.176122,60.47465 c 0.01491,17.2611 -10.977402,13.7553 -28.35898,14.6736 z"
       id="path4741"
       inkscape:connector-curvature="0"
       sodipodi:nodetypes="cccccccccccccccccccccc" />
    <circle
       style="color:#000000;clip-rule:nonzero;display:inline;overflow:visible;visibility:visible;opacity:1;isolation:auto;mix-blend-mode:normal;color-interpolation:sRGB;color-interpolation-filters:linearRGB;solid-color:#000000;solid-opacity:1;fill:#008cd1;fill-opacity:1;fill-rule:evenodd;stroke:none;stroke-width:1px;stroke-linecap:butt;stroke-linejoin:miter;stroke-miterlimit:4;stroke-dasharray:none;stroke-dashoffset:0;stroke-opacity:1;color-rendering:auto;image-rendering:auto;shape-rendering:auto;text-rendering:auto;enable-background:accumulate"
       id="path4743"
       cx="109.1609"
       cy="870.36621"
       r="23.15159" />
  </g>
</svg>
