<?xml version="1.0" encoding="UTF-8" standalone="no"?>
<!-- Created with Inkscape (http://www.inkscape.org/) -->

<svg
   xmlns:dc="http://purl.org/dc/elements/1.1/"
   xmlns:cc="http://creativecommons.org/ns#"
   xmlns:rdf="http://www.w3.org/1999/02/22-rdf-syntax-ns#"
   xmlns:svg="http://www.w3.org/2000/svg"
   xmlns="http://www.w3.org/2000/svg"
   xmlns:sodipodi="http://sodipodi.sourceforge.net/DTD/sodipodi-0.dtd"
   xmlns:inkscape="http://www.inkscape.org/namespaces/inkscape"
   width="60"
   height="60"
   viewBox="0 0 60.000003 60"
   id="svg2"
   version="1.1"
   inkscape:version="0.91 r13725"
   sodipodi:docname="menu_advanced.svg">
  <defs
     id="defs4" />
  <sodipodi:namedview
     id="base"
     pagecolor="#ffffff"
     bordercolor="#666666"
     borderopacity="1.0"
     inkscape:pageopacity="0.0"
     inkscape:pageshadow="2"
     inkscape:zoom="5.6"
     inkscape:cx="28.041305"
     inkscape:cy="27.353352"
     inkscape:document-units="px"
     inkscape:current-layer="layer1"
     showgrid="false"
     inkscape:window-width="1856"
     inkscape:window-height="1064"
     inkscape:window-x="64"
     inkscape:window-y="0"
     inkscape:window-maximized="1"
     inkscape:snap-global="false"
     inkscape:object-paths="true"
     inkscape:object-nodes="false"
     units="px" />
  <metadata
     id="metadata7">
    <rdf:RDF>
      <cc:Work
         rdf:about="">
        <dc:format>image/svg+xml</dc:format>
        <dc:type
           rdf:resource="http://purl.org/dc/dcmitype/StillImage" />
        <dc:title />
      </cc:Work>
    </rdf:RDF>
  </metadata>
  <g
     inkscape:label="Layer 1"
     inkscape:groupmode="layer"
     id="layer1"
     transform="translate(0,-992.3622)">
    <path
       style="font-style:normal;font-weight:normal;font-size:40px;line-height:125%;font-family:sans-serif;letter-spacing:0px;word-spacing:0px;fill:#008cd1;fill-opacity:1;stroke:none;stroke-width:1px;stroke-linecap:butt;stroke-linejoin:miter;stroke-opacity:1"
       d="m 27.769531,997.10938 a 1.2077721,1.2077721 0 0 0 -1.08789,0.68359 c -1.687494,3.51563 -3.304868,7.07853 -4.851563,10.68753 -1.543719,3.5553 -3.111501,7.2952 -4.701172,11.2226 a 1.2077721,1.2077721 0 0 0 -0.0059,0.012 c -1.542962,3.9277 -3.13006,8.0878 -4.765625,12.4805 l 0,-0 c -1.635177,4.3449 -3.3859148,9.0856 -5.2539064,14.2227 a 1.2077721,1.2077721 0 0 0 1.1347656,1.6191 l 7.0703128,0 a 1.2077721,1.2077721 0 0 0 1.138672,-0.8027 l 4.123046,-11.586 20.269532,0 c 0.643514,1.8192 1.278675,3.6286 1.886718,5.4121 a 1.2077721,1.2077721 0 0 0 0.002,0.01 c 0.703602,2.017 1.455197,4.0803 2.251953,6.1894 a 1.2077721,1.2077721 0 0 0 1.128906,0.7793 l 7.419922,0 a 1.2077721,1.2077721 0 0 0 1.134765,-1.6191 c -1.867991,-5.1371 -3.618729,-9.8778 -5.253906,-14.2227 l 0,0 c -1.635301,-4.392 -3.246052,-8.5521 -4.835937,-12.4805 l -0.0059,-0.012 c -1.542652,-3.9263 -3.087021,-7.667 -4.630859,-11.2226 l -0.002,-0 c -1.546173,-3.6076 -3.162743,-7.1693 -4.849609,-10.68363 a 1.2077721,1.2077721 0 0 0 -1.087891,-0.68359 l -6.228516,0 z m 2.921875,12.08982 c 1.172754,2.7027 2.343742,5.4115 3.4375,8.3047 a 1.2077721,1.2077721 0 0 0 0.0059,0.016 c 1.283528,3.249 2.567513,6.652 3.851562,10.1094 l -14.576172,0 c 1.244534,-3.4585 2.490487,-6.863 3.734375,-10.1133 l 0.002,-0.01 c 1.129607,-2.8943 2.336042,-5.6048 3.544922,-8.3086 z"
       id="path4142" />
  </g>
</svg>
