<?xml version="1.0" encoding="UTF-8" standalone="no"?>
<!-- Created with Inkscape (http://www.inkscape.org/) -->

<svg
   xmlns:dc="http://purl.org/dc/elements/1.1/"
   xmlns:cc="http://creativecommons.org/ns#"
   xmlns:rdf="http://www.w3.org/1999/02/22-rdf-syntax-ns#"
   xmlns:svg="http://www.w3.org/2000/svg"
   xmlns="http://www.w3.org/2000/svg"
   xmlns:sodipodi="http://sodipodi.sourceforge.net/DTD/sodipodi-0.dtd"
   xmlns:inkscape="http://www.inkscape.org/namespaces/inkscape"
   width="60"
   height="60"
   viewBox="0 0 60.000003 60"
   id="svg2"
   version="1.1"
   inkscape:version="0.91 r13725"
   sodipodi:docname="menu_info.svg">
  <defs
     id="defs4" />
  <sodipodi:namedview
     id="base"
     pagecolor="#ffffff"
     bordercolor="#666666"
     borderopacity="1.0"
     inkscape:pageopacity="0.0"
     inkscape:pageshadow="2"
     inkscape:zoom="7.9195959"
     inkscape:cx="33.773321"
     inkscape:cy="21.225121"
     inkscape:document-units="px"
     inkscape:current-layer="layer1"
     showgrid="false"
     inkscape:window-width="1858"
     inkscape:window-height="1061"
     inkscape:window-x="58"
     inkscape:window-y="1076"
     inkscape:window-maximized="1"
     inkscape:snap-global="false"
     inkscape:object-paths="true"
     inkscape:object-nodes="false"
     units="px" />
  <metadata
     id="metadata7">
    <rdf:RDF>
      <cc:Work
         rdf:about="">
        <dc:format>image/svg+xml</dc:format>
        <dc:type
           rdf:resource="http://purl.org/dc/dcmitype/StillImage" />
        <dc:title></dc:title>
      </cc:Work>
    </rdf:RDF>
  </metadata>
  <g
     inkscape:label="Layer 1"
     inkscape:groupmode="layer"
     id="layer1"
     transform="translate(0,-992.3622)">
    <path
       style="fill:#008cd1;fill-opacity:1;fill-rule:evenodd;stroke:none;stroke-width:0.79656219px;stroke-linecap:butt;stroke-linejoin:miter;stroke-opacity:1"
       d="m 17.222509,1042.2704 c -2.548371,0.1839 -3.313387,-0.2726 -3.264015,1.9613 l -0.0307,5.0535 c -0.01637,1.1194 0.178328,1.3596 1.275814,1.3596 l 30.53056,2e-4 c 1.284128,0 1.377831,0.037 1.354745,-1.1372 l 0.12263,-5.3221 c 0.07841,-2.1805 -1.287635,-1.8061 -3.846154,-1.9151 -5.841202,-0.2668 -7.937904,0.8317 -7.868832,-3.9556 l 0,-27.4437 c 0.0572,-0.9598 -0.147055,-0.9928 -0.975032,-0.9684 l -8.340117,0.081 c -1.212805,-0.014 -1.480938,0.1755 -2.135945,0.4537 -3.066387,1.2996 -5.251128,1.8193 -8.429662,2.4462 -0.644897,0.086 -0.928944,0.5692 -0.923996,1.0361 l 0.0019,3.6283 c -0.0293,0.6426 0.20997,0.8975 0.747482,0.8975 l 5.741518,0.021 c 3.926249,0.2571 4.139745,-0.047 4.167528,2.1318 l 0.05079,17.4398 c 0.0047,4.9776 -3.165661,3.9667 -8.178151,4.2315 z"
       id="path4741"
       inkscape:connector-curvature="0"
       sodipodi:nodetypes="cccccccccccccccccccccc" />
    <circle
       style="color:#000000;clip-rule:nonzero;display:inline;overflow:visible;visibility:visible;opacity:1;isolation:auto;mix-blend-mode:normal;color-interpolation:sRGB;color-interpolation-filters:linearRGB;solid-color:#000000;solid-opacity:1;fill:#008cd1;fill-opacity:1;fill-rule:evenodd;stroke:none;stroke-width:1px;stroke-linecap:butt;stroke-linejoin:miter;stroke-miterlimit:4;stroke-dasharray:none;stroke-dashoffset:0;stroke-opacity:1;color-rendering:auto;image-rendering:auto;shape-rendering:auto;text-rendering:auto;enable-background:accumulate"
       id="path4743"
       cx="30.038845"
       cy="999.78369"
       r="6.676445" />
  </g>
</svg>
